<mxfile host="app.diagrams.net" agent="Mozilla/5.0 (X11; Linux x86_64) AppleWebKit/537.36 (KHTML, like Gecko) Chrome/127.0.0.0 Safari/537.36" version="24.7.4">
  <diagram name="Page-1" id="ad52d381-51e7-2e0d-a935-2d0ddd2fd229">
    <mxGraphModel dx="1434" dy="820" grid="1" gridSize="10" guides="1" tooltips="1" connect="1" arrows="1" fold="1" page="1" pageScale="1" pageWidth="11000" pageHeight="8050" background="none" math="0" shadow="0">
      <root>
        <mxCell id="0" />
        <mxCell id="1" parent="0" />
        <mxCell id="JUoP1eI45jwGAjejHte_-11" value="proposes features" style="edgeStyle=none;shape=connector;rounded=1;orthogonalLoop=1;jettySize=auto;html=1;exitX=0.65;exitY=0.988;exitDx=0;exitDy=0;entryX=0;entryY=0;entryDx=0;entryDy=0;strokeColor=#3700CC;strokeWidth=1;align=center;verticalAlign=middle;fontFamily=Verdana;fontSize=12;fontColor=default;labelBackgroundColor=none;startArrow=none;startFill=0;startSize=5;endArrow=classicThin;endFill=1;endSize=5;exitPerimeter=0;fillColor=#6a00ff;" edge="1" parent="1" source="2c924340bb9dbf6c-2" target="2c924340bb9dbf6c-7">
          <mxGeometry relative="1" as="geometry" />
        </mxCell>
        <mxCell id="JUoP1eI45jwGAjejHte_-22" value="contributes $" style="edgeStyle=none;shape=connector;rounded=1;orthogonalLoop=1;jettySize=auto;html=1;exitX=0.758;exitY=0.075;exitDx=0;exitDy=0;strokeColor=#A50040;strokeWidth=1;align=center;verticalAlign=middle;fontFamily=Verdana;fontSize=12;fontColor=default;labelBackgroundColor=none;startArrow=none;startFill=0;startSize=5;endArrow=classicThin;endFill=1;endSize=5;exitPerimeter=0;fillColor=#d80073;" edge="1" parent="1" source="2c924340bb9dbf6c-2" target="JUoP1eI45jwGAjejHte_-1">
          <mxGeometry relative="1" as="geometry" />
        </mxCell>
        <mxCell id="JUoP1eI45jwGAjejHte_-31" value="proposes $ allocations" style="edgeStyle=none;shape=connector;rounded=1;orthogonalLoop=1;jettySize=auto;html=1;exitX=1;exitY=0.5;exitDx=0;exitDy=0;entryX=0.5;entryY=1;entryDx=0;entryDy=0;strokeColor=#A50040;strokeWidth=1;align=center;verticalAlign=middle;fontFamily=Verdana;fontSize=12;fontColor=default;labelBackgroundColor=none;startArrow=none;startFill=0;startSize=5;endArrow=classicThin;endFill=1;endSize=5;fillColor=#d80073;" edge="1" parent="1" source="2c924340bb9dbf6c-2" target="JUoP1eI45jwGAjejHte_-1">
          <mxGeometry relative="1" as="geometry" />
        </mxCell>
        <mxCell id="2c924340bb9dbf6c-2" value="Community" style="ellipse;whiteSpace=wrap;html=1;rounded=1;shadow=1;comic=0;labelBackgroundColor=none;strokeWidth=2;fontFamily=Verdana;fontSize=12;align=center;" parent="1" vertex="1">
          <mxGeometry x="310" y="290" width="120" height="80" as="geometry" />
        </mxCell>
        <mxCell id="2c924340bb9dbf6c-5" value="&lt;span&gt;Working group 01&lt;/span&gt;" style="ellipse;whiteSpace=wrap;html=1;rounded=1;shadow=1;comic=0;labelBackgroundColor=none;strokeWidth=2;fontFamily=Verdana;fontSize=12;align=center;" parent="1" vertex="1">
          <mxGeometry x="820" y="450" width="120" height="80" as="geometry" />
        </mxCell>
        <mxCell id="2c924340bb9dbf6c-6" value="&lt;span&gt;Contributors&lt;/span&gt;" style="ellipse;whiteSpace=wrap;html=1;rounded=1;shadow=1;comic=0;labelBackgroundColor=none;strokeWidth=2;fontFamily=Verdana;fontSize=12;align=center;" parent="1" vertex="1">
          <mxGeometry x="1050" y="450" width="120" height="80" as="geometry" />
        </mxCell>
        <mxCell id="JUoP1eI45jwGAjejHte_-17" value="authorises" style="edgeStyle=none;shape=connector;rounded=1;orthogonalLoop=1;jettySize=auto;html=1;exitX=0.5;exitY=1;exitDx=0;exitDy=0;entryX=0.5;entryY=0;entryDx=0;entryDy=0;strokeColor=#3700CC;strokeWidth=1;align=center;verticalAlign=middle;fontFamily=Verdana;fontSize=12;fontColor=default;labelBackgroundColor=none;startArrow=none;startFill=0;startSize=5;endArrow=classicThin;endFill=1;endSize=5;fillColor=#6a00ff;" edge="1" parent="1" source="2c924340bb9dbf6c-7" target="JUoP1eI45jwGAjejHte_-16">
          <mxGeometry relative="1" as="geometry" />
        </mxCell>
        <mxCell id="2c924340bb9dbf6c-7" value="Core Contributors" style="ellipse;whiteSpace=wrap;html=1;rounded=1;shadow=1;comic=0;labelBackgroundColor=none;strokeWidth=2;fontFamily=Verdana;fontSize=12;align=center;" parent="1" vertex="1">
          <mxGeometry x="500" y="410" width="120" height="80" as="geometry" />
        </mxCell>
        <mxCell id="2c924340bb9dbf6c-22" value="features" style="whiteSpace=wrap;html=1;rounded=1;shadow=1;comic=0;labelBackgroundColor=none;strokeWidth=2;fontFamily=Verdana;fontSize=12;align=center;arcSize=50;" parent="1" vertex="1">
          <mxGeometry x="1110" y="610" width="100" height="20" as="geometry" />
        </mxCell>
        <mxCell id="JUoP1eI45jwGAjejHte_-15" value="uses" style="edgeStyle=none;shape=connector;rounded=1;orthogonalLoop=1;jettySize=auto;html=1;exitX=1;exitY=0.5;exitDx=0;exitDy=0;entryX=0;entryY=0.5;entryDx=0;entryDy=0;strokeColor=#3700CC;strokeWidth=1;align=center;verticalAlign=middle;fontFamily=Verdana;fontSize=12;fontColor=default;labelBackgroundColor=none;startArrow=none;startFill=0;startSize=5;endArrow=classicThin;endFill=1;endSize=5;fillColor=#6a00ff;" edge="1" parent="1" source="2c924340bb9dbf6c-25" target="2c924340bb9dbf6c-26">
          <mxGeometry relative="1" as="geometry" />
        </mxCell>
        <mxCell id="2c924340bb9dbf6c-25" value="&lt;span&gt;Commercial application&lt;/span&gt;" style="rounded=1;whiteSpace=wrap;html=1;shadow=1;comic=0;labelBackgroundColor=none;strokeWidth=2;fontFamily=Verdana;fontSize=12;align=center;" parent="1" vertex="1">
          <mxGeometry x="50" y="530" width="120" height="60" as="geometry" />
        </mxCell>
        <mxCell id="2c924340bb9dbf6c-26" value="Project" style="rounded=1;whiteSpace=wrap;html=1;shadow=1;comic=0;labelBackgroundColor=none;strokeWidth=2;fontFamily=Verdana;fontSize=12;align=center;" parent="1" vertex="1">
          <mxGeometry x="400" y="570" width="110" height="50" as="geometry" />
        </mxCell>
        <mxCell id="2c924340bb9dbf6c-36" value="pull request" style="edgeStyle=none;rounded=1;html=1;labelBackgroundColor=none;startArrow=classicThin;startFill=1;startSize=5;endArrow=none;endFill=0;endSize=5;jettySize=auto;orthogonalLoop=1;strokeColor=#3700CC;strokeWidth=1;fontFamily=Verdana;fontSize=12;fillColor=#6a00ff;" parent="1" source="2c924340bb9dbf6c-5" target="2c924340bb9dbf6c-6" edge="1">
          <mxGeometry relative="1" as="geometry" />
        </mxCell>
        <mxCell id="2c924340bb9dbf6c-39" value="create" style="edgeStyle=none;rounded=1;html=1;labelBackgroundColor=none;startArrow=none;startFill=0;startSize=5;endArrow=classicThin;endFill=1;endSize=5;jettySize=auto;orthogonalLoop=1;strokeColor=#3700CC;strokeWidth=1;fontFamily=Verdana;fontSize=12;fillColor=#6a00ff;" parent="1" source="2c924340bb9dbf6c-6" target="2c924340bb9dbf6c-22" edge="1">
          <mxGeometry relative="1" as="geometry" />
        </mxCell>
        <mxCell id="2c924340bb9dbf6c-47" value="delivers" style="edgeStyle=none;rounded=1;html=1;labelBackgroundColor=none;startArrow=none;startFill=0;startSize=5;endArrow=classicThin;endFill=1;endSize=5;jettySize=auto;orthogonalLoop=1;strokeColor=#3700CC;strokeWidth=1;fontFamily=Verdana;fontSize=12;fillColor=#6a00ff;" parent="1" source="2c924340bb9dbf6c-7" target="2c924340bb9dbf6c-26" edge="1">
          <mxGeometry relative="1" as="geometry" />
        </mxCell>
        <mxCell id="JUoP1eI45jwGAjejHte_-19" value="uses" style="edgeStyle=none;shape=connector;rounded=1;orthogonalLoop=1;jettySize=auto;html=1;exitX=1;exitY=0.5;exitDx=0;exitDy=0;entryX=0;entryY=0.75;entryDx=0;entryDy=0;strokeColor=#3700CC;strokeWidth=1;align=center;verticalAlign=middle;fontFamily=Verdana;fontSize=12;fontColor=default;labelBackgroundColor=none;startArrow=none;startFill=0;startSize=5;endArrow=classicThin;endFill=1;endSize=5;fillColor=#6a00ff;" edge="1" parent="1" source="2c924340bb9dbf6c-51" target="2c924340bb9dbf6c-26">
          <mxGeometry relative="1" as="geometry" />
        </mxCell>
        <mxCell id="2c924340bb9dbf6c-51" value="non-commercial application" style="rounded=1;whiteSpace=wrap;html=1;shadow=1;comic=0;labelBackgroundColor=none;strokeWidth=2;fontFamily=Verdana;fontSize=12;align=center;" parent="1" vertex="1">
          <mxGeometry x="50" y="660" width="120" height="60" as="geometry" />
        </mxCell>
        <mxCell id="2c924340bb9dbf6c-52" value="&lt;span&gt;Non-Commercial users&lt;/span&gt;" style="ellipse;whiteSpace=wrap;html=1;rounded=1;shadow=1;comic=0;labelBackgroundColor=none;strokeWidth=2;fontFamily=Verdana;fontSize=12;align=center;" parent="1" vertex="1">
          <mxGeometry x="150" y="800" width="120" height="80" as="geometry" />
        </mxCell>
        <mxCell id="2c924340bb9dbf6c-58" value="features" style="whiteSpace=wrap;html=1;rounded=1;shadow=1;comic=0;labelBackgroundColor=none;strokeWidth=2;fontFamily=Verdana;fontSize=12;align=center;arcSize=50;" parent="1" vertex="1">
          <mxGeometry x="850" y="610" width="100" height="20" as="geometry" />
        </mxCell>
        <mxCell id="2c924340bb9dbf6c-60" value="&lt;span&gt;treasury actions&lt;/span&gt;" style="whiteSpace=wrap;html=1;rounded=1;shadow=1;comic=0;labelBackgroundColor=none;strokeWidth=2;fontFamily=Verdana;fontSize=12;align=center;arcSize=50;" parent="1" vertex="1">
          <mxGeometry x="700" y="120" width="120" height="20" as="geometry" />
        </mxCell>
        <mxCell id="JUoP1eI45jwGAjejHte_-21" value="uses" style="edgeStyle=none;shape=connector;rounded=1;orthogonalLoop=1;jettySize=auto;html=1;exitX=0;exitY=1;exitDx=0;exitDy=0;entryX=0.5;entryY=0;entryDx=0;entryDy=0;strokeColor=#3700CC;strokeWidth=1;align=center;verticalAlign=middle;fontFamily=Verdana;fontSize=12;fontColor=default;labelBackgroundColor=none;startArrow=none;startFill=0;startSize=5;endArrow=classicThin;endFill=1;endSize=5;fillColor=#6a00ff;" edge="1" parent="1" source="2c924340bb9dbf6c-67" target="2c924340bb9dbf6c-25">
          <mxGeometry relative="1" as="geometry" />
        </mxCell>
        <mxCell id="2c924340bb9dbf6c-67" value="&lt;span&gt;Commercial users&lt;/span&gt;" style="ellipse;whiteSpace=wrap;html=1;rounded=1;shadow=1;comic=0;labelBackgroundColor=none;strokeWidth=2;fontFamily=Verdana;fontSize=12;align=center;" parent="1" vertex="1">
          <mxGeometry x="140" y="410" width="120" height="80" as="geometry" />
        </mxCell>
        <mxCell id="2c924340bb9dbf6c-76" value="authorizes" style="edgeStyle=none;rounded=1;html=1;labelBackgroundColor=none;startArrow=none;startFill=0;startSize=5;endArrow=classicThin;endFill=1;endSize=5;jettySize=auto;orthogonalLoop=1;strokeColor=#A50040;strokeWidth=1;fontFamily=Verdana;fontSize=12;fillColor=#d80073;" parent="1" source="JUoP1eI45jwGAjejHte_-1" target="2c924340bb9dbf6c-60" edge="1">
          <mxGeometry relative="1" as="geometry" />
        </mxCell>
        <mxCell id="2c924340bb9dbf6c-77" value="delivers" style="edgeStyle=none;rounded=1;html=1;labelBackgroundColor=none;startArrow=none;startFill=0;startSize=5;endArrow=classicThin;endFill=1;endSize=5;jettySize=auto;orthogonalLoop=1;strokeColor=#3700CC;strokeWidth=1;fontFamily=Verdana;fontSize=12;fillColor=#6a00ff;" parent="1" source="2c924340bb9dbf6c-5" target="2c924340bb9dbf6c-58" edge="1">
          <mxGeometry relative="1" as="geometry" />
        </mxCell>
        <mxCell id="JUoP1eI45jwGAjejHte_-1" value="Treasury Board" style="ellipse;whiteSpace=wrap;html=1;strokeWidth=2;" vertex="1" parent="1">
          <mxGeometry x="550" y="180" width="120" height="80" as="geometry" />
        </mxCell>
        <mxCell id="JUoP1eI45jwGAjejHte_-12" value="assigns" style="edgeStyle=none;shape=connector;rounded=1;orthogonalLoop=1;jettySize=auto;html=1;exitX=1.008;exitY=0.688;exitDx=0;exitDy=0;entryX=0;entryY=0.5;entryDx=0;entryDy=0;strokeColor=#3700CC;strokeWidth=1;align=center;verticalAlign=middle;fontFamily=Verdana;fontSize=12;fontColor=default;labelBackgroundColor=none;startArrow=none;startFill=0;startSize=5;endArrow=classicThin;endFill=1;endSize=5;exitPerimeter=0;fillColor=#6a00ff;" edge="1" parent="1" source="2c924340bb9dbf6c-7" target="2c924340bb9dbf6c-5">
          <mxGeometry relative="1" as="geometry" />
        </mxCell>
        <mxCell id="JUoP1eI45jwGAjejHte_-16" value="Creates working groups" style="rounded=1;whiteSpace=wrap;html=1;shadow=1;comic=0;labelBackgroundColor=none;strokeWidth=2;fontFamily=Verdana;fontSize=12;align=center;" vertex="1" parent="1">
          <mxGeometry x="580" y="570" width="110" height="50" as="geometry" />
        </mxCell>
        <mxCell id="JUoP1eI45jwGAjejHte_-20" value="uses" style="edgeStyle=none;shape=connector;rounded=1;orthogonalLoop=1;jettySize=auto;html=1;exitX=0;exitY=0;exitDx=0;exitDy=0;entryX=0.7;entryY=1.05;entryDx=0;entryDy=0;entryPerimeter=0;strokeColor=#3700CC;strokeWidth=1;align=center;verticalAlign=middle;fontFamily=Verdana;fontSize=12;fontColor=default;labelBackgroundColor=none;startArrow=none;startFill=0;startSize=5;endArrow=classicThin;endFill=1;endSize=5;fillColor=#6a00ff;" edge="1" parent="1" source="2c924340bb9dbf6c-52" target="2c924340bb9dbf6c-51">
          <mxGeometry relative="1" as="geometry" />
        </mxCell>
        <mxCell id="JUoP1eI45jwGAjejHte_-26" value="&lt;h1 style=&quot;margin-top: 0px;&quot;&gt;Core platform or project extension&lt;/h1&gt;&lt;p&gt;New features in the platform can be suggested by the contributors or the core contributors (maintainers).&amp;nbsp; Features are typically assigned to working groups, and from working groups to individual contributors. Working group remains responsible for the delivery.&lt;/p&gt;" style="text;html=1;whiteSpace=wrap;overflow=hidden;rounded=0;fontFamily=Verdana;fontSize=12;fontColor=default;labelBackgroundColor=none;" vertex="1" parent="1">
          <mxGeometry x="40" y="40" width="500" height="120" as="geometry" />
        </mxCell>
        <mxCell id="JUoP1eI45jwGAjejHte_-28" value="project owner" style="whiteSpace=wrap;html=1;rounded=1;shadow=1;comic=0;labelBackgroundColor=none;strokeWidth=2;fontFamily=Verdana;fontSize=12;align=center;arcSize=50;fillColor=#0050ef;strokeColor=#001DBC;fontColor=#ffffff;" vertex="1" parent="1">
          <mxGeometry x="870" y="500" width="100" height="20" as="geometry" />
        </mxCell>
        <mxCell id="JUoP1eI45jwGAjejHte_-29" value="project team" style="whiteSpace=wrap;html=1;rounded=1;shadow=1;comic=0;labelBackgroundColor=none;strokeWidth=2;fontFamily=Verdana;fontSize=12;align=center;arcSize=50;fillColor=#0050ef;strokeColor=#001DBC;fontColor=#ffffff;" vertex="1" parent="1">
          <mxGeometry x="1110" y="500" width="100" height="20" as="geometry" />
        </mxCell>
        <mxCell id="JUoP1eI45jwGAjejHte_-30" value="legal wrapper rep" style="whiteSpace=wrap;html=1;rounded=1;shadow=1;comic=0;labelBackgroundColor=none;strokeWidth=2;fontFamily=Verdana;fontSize=12;align=center;arcSize=50;fillColor=#a20025;strokeColor=#6F0000;fontColor=#ffffff;" vertex="1" parent="1">
          <mxGeometry x="610" y="230" width="130" height="20" as="geometry" />
        </mxCell>
        <mxCell id="JUoP1eI45jwGAjejHte_-32" value="maintainers" style="whiteSpace=wrap;html=1;rounded=1;shadow=1;comic=0;labelBackgroundColor=none;strokeWidth=2;fontFamily=Verdana;fontSize=12;align=center;arcSize=50;fillColor=#0050ef;strokeColor=#001DBC;fontColor=#ffffff;" vertex="1" parent="1">
          <mxGeometry x="550" y="460" width="100" height="20" as="geometry" />
        </mxCell>
        <mxCell id="JUoP1eI45jwGAjejHte_-67" value="donors" style="whiteSpace=wrap;html=1;rounded=1;shadow=1;comic=0;labelBackgroundColor=none;strokeWidth=2;fontFamily=Verdana;fontSize=12;align=center;arcSize=50;fillColor=#0050ef;strokeColor=#001DBC;fontColor=#ffffff;" vertex="1" parent="1">
          <mxGeometry x="260" y="340" width="100" height="20" as="geometry" />
        </mxCell>
        <mxCell id="JUoP1eI45jwGAjejHte_-68" value="users" style="whiteSpace=wrap;html=1;rounded=1;shadow=1;comic=0;labelBackgroundColor=none;strokeWidth=2;fontFamily=Verdana;fontSize=12;align=center;arcSize=50;fillColor=#0050ef;strokeColor=#001DBC;fontColor=#ffffff;" vertex="1" parent="1">
          <mxGeometry x="210" y="460" width="100" height="20" as="geometry" />
        </mxCell>
        <mxCell id="JUoP1eI45jwGAjejHte_-69" value="users" style="whiteSpace=wrap;html=1;rounded=1;shadow=1;comic=0;labelBackgroundColor=none;strokeWidth=2;fontFamily=Verdana;fontSize=12;align=center;arcSize=50;fillColor=#0050ef;strokeColor=#001DBC;fontColor=#ffffff;" vertex="1" parent="1">
          <mxGeometry x="230" y="850" width="100" height="20" as="geometry" />
        </mxCell>
        <mxCell id="JUoP1eI45jwGAjejHte_-70" value="&lt;h1 style=&quot;margin-top: 0px;&quot;&gt;DAO and automation choices&lt;/h1&gt;&lt;p&gt;The choice of DAO covers:&lt;/p&gt;&lt;p&gt;- Creation of one token per project&lt;/p&gt;&lt;p&gt;- automation of comms and workflows available&lt;/p&gt;&lt;p&gt;- zero-code approach&lt;/p&gt;&lt;p&gt;- MIT License&lt;/p&gt;&lt;p&gt;&lt;br&gt;&lt;/p&gt;" style="text;html=1;whiteSpace=wrap;overflow=hidden;rounded=0;fontFamily=Verdana;fontSize=12;fontColor=default;labelBackgroundColor=none;" vertex="1" parent="1">
          <mxGeometry x="70" y="990" width="530" height="220" as="geometry" />
        </mxCell>
        <mxCell id="JUoP1eI45jwGAjejHte_-71" value="" style="shape=image;verticalLabelPosition=bottom;labelBackgroundColor=default;verticalAlign=top;aspect=fixed;imageAspect=0;image=data:image/png,iVBORw0KGgoAAAANSUhEUgAAAN4AAABLCAYAAAAfzDlHAAAABHNCSVQICAgIfAhkiAAAABl0RVh0U29mdHdhcmUAZ25vbWUtc2NyZWVuc2hvdO8Dvz4AAAArdEVYdENyZWF0aW9uIFRpbWUAVGh1IDI1IEp1bCAyMDI0IDExOjI4OjE0IENFU1TyN6+9AAASSUlEQVR4nO2de1SVVd7HP/scLgooApFXQETF24voEjVMLdLstbA0rRkyGyjzFUfzsnJaY5NNNe8rrRk1xcZlZGMyls7g8r7MsnIEB8Eblr6moDjhC144CijK5Zzn/eNwHnnOhUE48GDtz1os3PvZz96/c9zf57f3b+/9IMLCwhQkEkmrYtDbAInk54gUnkSiA1J4EokOSOFJJDoghSeR6IAUnkSiA1J4EokOeDS24IXCCy1ph+6E9wzX2wTJzwjp8SQSHZDCk0h0QApPItEBKTyJRAek8CQSHZDCk0h0QApPItGBn4TwRN2PRHK/0OgFdD2oLyZ5WlfyU+L+83iWGig+CKbvsMlRQQpTcn/RpoWnUF9UAlF7C3F2I+L4/yDOpkNtpa72SSRNpU0Lz0rdgPPONZTvU+GHT6Dy/6B9MBjb6WuaRNJE2vQcD+pkd6sIvl+DculrFEsNwjsIJXwKCKPe5kkkTaKNC09BKTsL369GFB+yqlCphZ5PIzr2kvM6yX1L2x1qKma4dhxxPAVRnIkiQCgW8A1BiXhOiu5nRGpqKoWFherPzp079Tap2bRNj2ephuJMxOk/Q1l+3ZBSAQREPAc+XazOT2czJZKmorvHs1/8FtXliIK/IU68D2X5KMJolZxigYD+EDKhEbVIJC3D8ePHNd73N7/5TZPqaTMeTwDcvgznNkHhdqgpV4MnAgUMXig9n7ZGM7H3dtL3Se4vdBeeTTLi5kX43zS49DWK+Q5guOvDFAsERUHnEU4imXLQKbn/0F14AJSfh5Mr4HI2oCCsPq5uVqeAhw9KyBPg001nQyUS96Cb8ASgKBa48QOcWIZSmocQVnPq+y9FURCBgxAPDkUxeOpiq7sYO3YsU6dOJTo6muDgYAwGAyaTidOnT7N37162b99OVVWV5p7s7Gy6dOmippOTk9m3bx/Tp08nPj6e3r174+PjQ0lJCd9++y1r1qyhpKTEafudOnVi6tSpPProo0RERBAUFER1dTVFRUVkZ2eTnp7OuXPnNPf4+vpy6tQpTV5sbCxdunRh5syZxMTE4O/vj8lkIjc3lw0bNpCbm+vyO4iMjOSFF15gxIgR9OjRA29vb8rLy8nPz+cf//gHn3/+OdeuXWvU9zlmzBgSExOJjo7Gz8+PK1eukJWVxYcffkhhYaHL+7p168b06dMZPXo0vXr1wtvbmxs3bvDDDz+wf/9+Nm/ezK1bt9Ty8fHxrF692mlds2fPZvbs2QD07NmzUXYDiMb+tSB3vGXMNnRUAGGpRrmSizi5HKWsAAzOngEKwrMDyoBZEDEVhKPw6tfZHFryLWO+vr6sXr2auLi4BssVFhaSnJzM6dOn1Tx74S1fvpyJEyfSr18/p3VcvXqVadOmOXS8Z599lqVLl9KxY0eX7ZvNZpYvX86aNWs0ttsLb+vWrUyePBkhHANaiqLwwQcfsHLlSodrixYtIjk5GaPR9caHmzdvsmTJErZv367mpaam8tRTT6np7777jpycHF5++WWnddy6dYvExERycnIcrj3//PO8++67eHl5ubShtLSU+fPnc/DgQaBh4dXnXoSnT1SzuhylcCcceRvKXYkO65AzoD90fgiE6y+qIfSOdwohWLdu3b8VHVj/4z777DO6dXM9pF6wYIFL0QEEBwfzzjvvaPImT57MH//4xwZFB2A0Gnn99dd54YUXGiw3ZcoUp6ID6+edP38+zz77rCb/tddeY+7cuQ2KDsDPz4+VK1cyfvx4l2UGDRrkUnRgfVisXLkSDw9tv0pOTiYlJaVB0QEEBQXxl7/8hUceeaTBcs2hFTye1ieJyhKUCxmIgr+hVJc53/ZVFy8RxvYofadD+ORGtiTAOwClTsj3cqyopTxeXFwc69ev1+Rt2rSJHTt2APDYY48xc+ZMzfWMjAwWLVoEOHo8sHqVI0eOcPnyZcLDwxk4cKDD9djYWIqLi2nfvj2ZmZkEBQWp10tLS0lLS+PixYv07NmTmTNnEhAQoF4vKytj+PDhVFVVOfV4AHfu3OHw4cNUVFQwZMgQunfvrrluMpkYNWoUt2/fplOnTuTm5uLpeXfEcvjwYdatW8eNGzeIiopi4cKFdOjQQb1eVFTE6NGjURTFwePZOH36NOfPnyc4OJiYmBgMBq0fmTVrFl988QUAUVFRbN26VSNGs9lMTk4OJSUl9OvXj/79+2vuLy8vZ+zYsRiNRvVht3btWvz8/NQyO3fuZPPmzQBkZmY62OiKVpjj1evyFYVw9lMo+gpqbyGEsV4opV5pW1IxI0qyUK6fAqURzwfFDKH/iQiL184Tm/8hmszIkSM16aNHj/Lb3/5WTWdnZ9O1a1dNxxozZozL+iorK5kxYwZHjhxR8+bNm8fChQvVtBCC6OhoiouLGThwoEZ0gGYYBXDmzBnNw8Hf35+YmBiXHenChQskJCRQXFwMgIeHB3/60594+umn1TKBgYFMmDCBbdu2MXToUI3oampqSEpKUudRR48epaamhvfee08t06NHD8LDwzl//rxD+4qisGDBArZt26bmjR07lg0bNmjKDR8+XBXeggULNKKrrKzkpZde0sxHk5KSeOutt9R0x44defXVV0lJSVG/i5qaGk0bRUVF9yQ4Gy0uPIEALCjl+YhTf4aSf1rnd/U8oSthKJZquHHatXKEYqvCWpu5CoKi797vlk/QPOp3OLB2ai8vL6qrq9W8FStWsGfPHjVtsVhc1peRkaERHcDGjRs1wgNUL3ny5EliYmI010pLSzVpZ3OhkJAQlzZ88sknqugAamtrefPNNxk3bhy+vr5q/sMPP8y2bdscvgOj0UhgYKAmgLF7925MJpOm3PXr1522f+rUKY3oAA4cOEBBQQERERFqnm3IHhAQwOjRozXl161b5xAEWr9+PXFxcTz88MNq3qRJk0hJSXFqR3NoHY934wfEsf8G0/cgDPVEp8XpilwD6hFKvWGsYkGJnAGRv2q+yW7k6NGjJCYmqunevXuza9cuNm3aRFZWFvn5+RQUFFBQUNCo+uyfuGDtoDU1NZoObhNAdXU1V69eVfMjIiIYM2YMISEhdOjQAU9PT6fzrvbt27u0wWw2O+RVVFRw6NAhzdzMNjw7ceIEZrNZbcdgMLB9+3bS09M5cOAAeXl5XL9+XfPwaQjFxeinuLhYIzzb0HXIkCEO8729e/c6rWPHjh0a4XXv3p3g4GDNd+gOWlZ4igXl2gnEkbdRbl4EgxfCuo6AvcxcB0BcL5Bba7GgGH0Q/ZKg74vQxpYc9uzZQ3Z2tmbI2bdvX95++23AOp/Kyclh9+7d7Nq1i9ra2ia1Y98Z7YMfY8aM4Y033mDAgAFNqr8x2EdSAwMDAbh8+TKpqam89tprmmvz5s1j3rx5VFVVkZeXx5dffsmWLVsoKytrUvv2IwXbd2A/RwbIz893Woez/NDQULcLr0Wimrb/cmE6hfjnQpSbhdYgimKxrt0pVg+FoiDqfhTF4mLQad+h7C779EBEzUfp88s2JzqwdoakpCS2bNnidAjp7+/P+PHjWblyJQcOHCA2NtbtNsyYMYMNGza0qOjAGnCpj4+Pj/rvFStW8N5771FZ6fjWAG9vb4YPH86SJUs4dOiQZoTgDvz9/TXpqqoqlw+427dvO+TV/xzuosWWEwRATQW0C4ZO/RH+fRH+fRAd+yD8+4D/3d/Wn77gF44wejUY/7c92AUC0SkSBs2BsKfA6HpopDeVlZUsXryY8ePHs3btWs6ePet0uNS9e3c2bNjAsGHD3NZ2eHg4b731lsYDnjp1isTERIYOHUp4eDiRkZFuaav+/A4cO3FaWhqjRo3iD3/4A7m5uU6Hzb6+vixdupRZs2a5xSZAM5cE67zb1XJI/YiljYqKCrfZYqNFhppql3pwGMS8A5ZaFGGLXlo/sHDwbgKun7bu16wyNbgDU6CgBA+DfonwwFAweDVQuu1QUFDAsmXLWLZsGYGBgYwcOZLJkydr5kWenp68/vrrPP/8825p85lnntHMb6qqqpg+fbrLwEVzsF9Atg/igHU++tFHH/HRRx/Rrl07hg0bxoQJE5g2bRrt2t19lce8efNIT093EE1TsN/JYzAYCAsLc7q7pVevXg55ly9fbrYN9rSI8FTRGLysR3nquCu7epujbb/Nt+HSV1B7076WevXWDVF7PA79XwH/3nVRU9eRUT3x8/NziDampqZiMpkwmUzs2bOHPXv2sHjxYpKTk9UygwcPRgjhMohwL9QPNoDV2zVXdM6CMb6+vowYMUKTZ9uBM2fOHM2Sxq5duzh27Bh37twhMzOTzMxM9u3bx8aNGzX19e3bl+PHjzfLVrAGuOx58sknNTt0bDzxxBOadHFxsSaCa4/92mFjcbvwXI0SG9rapYDV25UcQpirqPNp2nsVC4rBCL1/CX1fUo8HteXTCZWVlSQkJGie5IWFhXz66aeachcvXtSkPTw83CY8+3lleHg4fn5+3Lx5U82z7TVsLImJiezbt0/1JAaDgd/97ncOQ81vv/0WgBEjRmjWJrt06aJ50AD861//cmjHPhLZVEpLSzl06JBm/pycnExWVhYnTpxQ837xi1/w6KOPau61bXSwYT887tOnT5NscrvwXK7JAc5EooB1Mb040xr5dCJdRTEjjO0RA15FiZgGHr717m+bogNrp9+6dSsJCQlq3ptvvknnzp05ePAgt2/fZtCgQeouFRvHjh1rcC3vXsjLy2PSpElqOiAggIyMDLZt24bBYOCxxx5j6NChDve5mgOBVbxff/01WVlZlJWVER0dTe/evTVliouL+fLLLwH4+9//rhHexIkTWb16NRkZGZSWlhISEsKvf/1rzf2VlZWaPavN5YMPPuChhx5SP5evry8ZGRlkZWVRUlJCZGQkgwcP1txTXl5OWlqaw+d68MEH1XRcXBw7duzgypUrvPLKK422p5VPJ7gQyY2zUHwQYa5BEfau22L1bgP+C0KfBKN3i1vpTpYvX86oUaMICwsDwMvLizlz5jBnzhyn5Wtra3n//ffd1v6WLVuYPXs2DzzwgJoXGRn5b09OOwsy1MfHx6fB/ZRLly5VvcOuXbuYNGkS48aNU6/Hx8cTHx/v8v5Vq1a5ZX5n4/Dhw6xatUqzpGE0Gl3uEjKbzSxatMhhGeGbb75xEGhUVNQ929PKm6QdtyyLmgpE8UGUikIUJ09Z0TECEbUIwp5Cuc9EB3Dt2jUSEhKc7g5xVvbll1922JnSHCoqKkhKSmrwqM2PP/7oMI8JDQ11Wf6bb75xGpEEa4f9/e9/z759+9Q8i8VCcnIyn3/++b8dPldXV5OSksLatWsbLNcUbEsa9XcNOcNkMpGUlKR67PqsX7+eCxeaf1JHZ4+nQPkFuPS1NWhi7+2CBqP0S4LOIxHC2IZncw1z6dIlnnvuOcaPH8/EiRMZMmQIwcHBeHl5cf36dc6cOcP+/fvJyMjQzL3cxcmTJ3n88ceZOXMm48aNIzQ0FIvFwsWLF9m7dy8ff/wxixcv5sUXX1TviY2NdRk4+Oqrr1i2bBnJycnExsbSqVMnTCYTOTk5pKWlkZeX53BPdXU1b7zxBunp6UyZMkU902ebb54/f56srCw2b95MUVGR278DG2lpaezevVs9jxcaGoqfnx9lZWWcO3eO/fv3s2nTJpfetry8nClTpjB37lzGjRtH165dqampuWebW/U8Xl2TqKfMLVXw3SpE/iYU1fnWXes6FvonQsAgN7XbMC15Hu9+xtnphCVLlvDXv/5VJ4t+GuhwAl25+7ssH/HjF/W8mAVh8LIeA+qTAL6uN+pKJPczur36QQHI/wzuXLW+8kExg2cHiPwVSvgz4G3d53f30ND9OMiUSJzTisKrP0MTiNITKD9+gSKMCMUM7YJg4ByUkAngcXdvnBSd5KeILh5PKLUoZz5B1N5BMXqi+IbAf8yF7nEgPLB73ZEeJkokLUorCq+egIoPIq4cBqMndOoPA5OhSyxteReKROJOWkF4TjaLleZZ050fggGvQmCUXXkpvrbCrVu37untWZLG0brvXLHldHsE4R1gXTLoENZgWYnkp0irz/EEoAQNRgkcJP+wpORnS6u/V1P1aVJ0kp8xuv+ZLonk54gUnkSiA1J4EokOSOFJJDoghSeR6IAUnkSiA1J4EokOSOFJJDrQ6BPoEonEfUiPJ5HogBSeRKIDUngSiQ5I4UkkOiCFJ5HogBSeRKIDUngSiQ5I4UkkOiCFJ5HogBSeRKID/w807a0qYpaHAwAAAABJRU5ErkJggg==;" vertex="1" parent="1">
          <mxGeometry x="99" y="1270" width="222" height="75" as="geometry" />
        </mxCell>
      </root>
    </mxGraphModel>
  </diagram>
</mxfile>
